<?xml version="1.0" encoding="utf-8"?>
<!-- Generator: Adobe Illustrator 25.4.1, SVG Export Plug-In . SVG Version: 6.00 Build 0)  -->
<svg version="1.1" id="Calque_1" xmlns="http://www.w3.org/2000/svg" xmlns:xlink="http://www.w3.org/1999/xlink" x="0px" y="0px"
	 viewBox="0 0 595 595" style="enable-background:new 0 0 595 595;" xml:space="preserve">
<style type="text/css">
	.st0{fill:url(#SVGID_1_);}
	.st1{fill:#035CA3;}
	.st2{fill:#2B3A8D;}
	.st3{fill:url(#SVGID_00000000210237247473177310000001693457497949858749_);}
	.st4{fill:#273C87;}
	.st5{fill:#1B7CC1;}
</style>
<g>
	<g>
		<linearGradient id="SVGID_1_" gradientUnits="userSpaceOnUse" x1="28.0923" y1="302.8766" x2="197.5788" y2="302.8766">
			<stop  offset="0" style="stop-color:#2EABD3"/>
			<stop  offset="0.0702" style="stop-color:#219ECC"/>
			<stop  offset="0.2115" style="stop-color:#0788BE"/>
			<stop  offset="0.3546" style="stop-color:#0076B3"/>
			<stop  offset="0.4983" style="stop-color:#006AAB"/>
			<stop  offset="0.643" style="stop-color:#0063A6"/>
			<stop  offset="0.7901" style="stop-color:#0061A4"/>
		</linearGradient>
		<path class="st0" d="M197.58,301.29v87.91h-45.67v-28.4h-46.99v-45.22h46.99v-13.43c0-10.79-4.37-20.56-11.45-27.62
			c-7.06-7.08-16.84-11.45-27.62-11.45c-21.58,0-39.07,17.5-39.07,39.07v87.05H28.09v-87.91c0-46.81,37.94-84.74,84.74-84.74
			c23.4,0,44.59,9.48,59.92,24.82C188.09,256.7,197.58,277.88,197.58,301.29z"/>
		<path class="st1" d="M501.26,201.41h-38.76c-2.03,0-3.67-1.64-3.67-3.67v-32.76c0-2.03,1.64-3.67,3.67-3.67h38.76
			c2.03,0,3.67,1.64,3.67,3.67v32.76C504.94,199.77,503.29,201.41,501.26,201.41z"/>
		<path class="st2" d="M504.94,379.38v9.82h-45.69v-77.57C462.15,341.12,479.91,366.23,504.94,379.38z"/>
		<path class="st2" d="M566.91,250.15v44.79h-62.2c-1.24-16.77-7.35-32.16-16.93-44.79c-2.35-3.1-4.91-6.03-7.66-8.78
			c-6.22-6.22-13.39-11.47-21.28-15.53v-9.9h46.11v34.21H566.91z"/>
		
			<linearGradient id="SVGID_00000083061450977802163160000012070654745159480227_" gradientUnits="userSpaceOnUse" x1="208.406" y1="302.8766" x2="566.9077" y2="302.8766">
			<stop  offset="0" style="stop-color:#26A7E0"/>
			<stop  offset="0.1147" style="stop-color:#1597D3"/>
			<stop  offset="0.3143" style="stop-color:#007FBF"/>
			<stop  offset="0.4997" style="stop-color:#006EB0"/>
			<stop  offset="0.664" style="stop-color:#0064A7"/>
			<stop  offset="0.7901" style="stop-color:#0061A4"/>
		</linearGradient>
		<path style="fill:url(#SVGID_00000083061450977802163160000012070654745159480227_);" d="M566.91,344.83v44.38h-21.98
			c-8.52,0-16.75-1.24-24.52-3.54c-0.97-0.29-8.24-2.48-15.46-6.28c-21.02-11.07-43.74-36.93-45.69-67.75
			c-0.18-2.77-0.16-5.17-0.09-6.98c0.07-1.86,0.08-3.72-0.1-5.57c-0.06-0.64-0.14-1.27-0.23-1.89
			c-2.77-19.28-19.37-34.11-39.44-34.11h-1.64c-22.02,0-39.86,17.85-39.86,39.86v86.26h-42.44v-86.26
			c0-22.01-17.85-39.86-39.88-39.86h-1.62c-22.02,0-39.88,17.85-39.88,39.86v86.26h-45.67v-87.91c0-46.81,37.95-84.74,84.74-84.74
			c23.41,0,44.59,9.48,59.92,24.82c1.24,1.24,2.44,2.52,3.6,3.84c15.51-17.59,38.23-28.67,63.52-28.67c13.92,0,27.04,3.35,38.63,9.3
			c7.9,4.05,15.07,9.31,21.28,15.53c2.75,2.75,5.31,5.68,7.66,8.78c9.57,12.62,15.69,28.02,16.93,44.79
			c0.16,2.1,0.24,4.21,0.24,6.35v3.66c0,22.02,17.85,39.88,39.88,39.88H566.91z"/>
	</g>
	<g>
		<path class="st4" d="M35.96,410.66h2.73l8.72,22.8h-4.63l-5.46-15.57l-5.46,15.57h-4.63L35.96,410.66z M31.43,425.66h12v4.14h-12
			V425.66z"/>
		<path class="st4" d="M54.69,410.66h4.3v22.8h-4.3V410.66z M56.61,429.32h13.36v4.14H56.61V429.32z"/>
		<path class="st4" d="M77.57,410.66h4.3v22.8h-4.3V410.66z M79.13,410.66h13.41v4.14H79.13V410.66z M79.13,420.27h11.68v4.14H79.13
			V420.27z"/>
		<path class="st4" d="M105.88,410.66h2.73l8.72,22.8h-4.63l-5.46-15.57l-5.46,15.57h-4.63L105.88,410.66z M101.35,425.66h12v4.14
			h-12V425.66z"/>
		<path class="st4" d="M148.91,410.66h5.66v22.8h-3.9v-17.7l0.16,1l-4.36,14.16h-3.79l-4.36-13.85l0.16-1.32v17.7h-3.91v-22.8h5.66
			l4.34,15.37L148.91,410.66z"/>
		<path class="st4" d="M170.58,410.66h2.73l8.72,22.8h-4.63l-5.46-15.57l-5.46,15.57h-4.63L170.58,410.66z M166.05,425.66h12v4.14
			h-12V425.66z"/>
		<path class="st4" d="M189.31,410.64h4.3v22.82h-4.3V410.64z M191.02,420.14h7.93c0.44,0,0.83-0.11,1.16-0.33s0.59-0.53,0.78-0.94
			c0.18-0.41,0.28-0.88,0.29-1.41c0-0.53-0.09-1-0.27-1.41c-0.18-0.41-0.44-0.72-0.78-0.94c-0.34-0.22-0.73-0.33-1.18-0.33h-7.93
			v-4.14h8.28c1.25,0,2.36,0.28,3.31,0.85c0.95,0.56,1.69,1.36,2.21,2.39c0.52,1.03,0.78,2.22,0.78,3.58c0,1.36-0.26,2.55-0.78,3.58
			c-0.52,1.03-1.26,1.83-2.22,2.39c-0.96,0.56-2.06,0.85-3.3,0.85h-8.28V420.14z M195.82,423.58l4.59-0.72l6.15,10.6h-5.21
			L195.82,423.58z"/>
		<path class="st4" d="M218.2,432.65c-1.26-0.7-2.23-1.68-2.92-2.95c-0.69-1.27-1.03-2.74-1.03-4.41v-6.46
			c0-1.67,0.34-3.14,1.03-4.41c0.69-1.27,1.66-2.25,2.92-2.95c1.26-0.7,2.72-1.04,4.37-1.04c1.65,0,3.11,0.35,4.37,1.04
			c1.26,0.7,2.23,1.68,2.92,2.95s1.04,2.74,1.04,4.41v6.46c0,1.67-0.35,3.14-1.04,4.41s-1.66,2.25-2.92,2.95
			c-1.26,0.7-2.72,1.04-4.37,1.04C220.91,433.69,219.46,433.34,218.2,432.65z M224.6,428.9c0.58-0.33,1.04-0.8,1.36-1.4
			c0.32-0.61,0.48-1.31,0.48-2.1v-6.68c0-0.79-0.16-1.5-0.48-2.1c-0.32-0.61-0.77-1.07-1.36-1.4c-0.59-0.33-1.27-0.49-2.04-0.49
			c-0.77,0-1.45,0.16-2.04,0.49c-0.59,0.33-1.04,0.8-1.36,1.4c-0.32,0.61-0.48,1.31-0.48,2.1v6.68c0,0.8,0.16,1.5,0.48,2.1
			c0.32,0.61,0.77,1.07,1.36,1.4c0.59,0.33,1.26,0.49,2.04,0.49C223.34,429.39,224.02,429.23,224.6,428.9z"/>
		<path class="st4" d="M243.23,432.7c-1.23-0.66-2.17-1.63-2.82-2.9c-0.65-1.27-0.97-2.8-0.97-4.6v-6.26c0-1.8,0.32-3.33,0.97-4.6
			c0.65-1.27,1.59-2.24,2.82-2.91c1.23-0.67,2.72-1,4.45-1c1.43,0,2.71,0.31,3.84,0.92c1.13,0.62,2.06,1.51,2.8,2.69
			c0.74,1.18,1.25,2.59,1.53,4.26h-4.45c-0.17-0.75-0.43-1.4-0.78-1.93c-0.35-0.53-0.77-0.94-1.27-1.22
			c-0.5-0.28-1.05-0.42-1.67-0.42c-0.81,0-1.49,0.16-2.05,0.49c-0.56,0.33-1,0.81-1.29,1.44c-0.3,0.63-0.45,1.39-0.45,2.28v6.26
			c0,0.89,0.15,1.65,0.45,2.27c0.3,0.63,0.73,1.11,1.29,1.43c0.56,0.33,1.25,0.49,2.05,0.49c0.63,0,1.19-0.14,1.69-0.42
			c0.5-0.28,0.93-0.68,1.27-1.21c0.34-0.53,0.6-1.18,0.75-1.94h4.45c-0.29,1.66-0.81,3.08-1.54,4.26c-0.74,1.18-1.67,2.07-2.79,2.69
			c-1.12,0.62-2.4,0.92-3.83,0.92C245.95,433.69,244.46,433.36,243.23,432.7z"/>
		<path class="st4" d="M271.05,410.66h16.72v4.14h-16.72V410.66z M277.26,412.52h4.3v20.93h-4.3V412.52z"/>
		<path class="st4" d="M294.11,410.66h4.3v22.8h-4.3V410.66z M295.67,410.66h13.72v4.14h-13.72V410.66z M295.67,420.07h12v4.14h-12
			V420.07z M295.67,429.32h13.72v4.14h-13.72V429.32z"/>
		<path class="st4" d="M321.1,432.7c-1.23-0.66-2.18-1.63-2.82-2.9c-0.65-1.27-0.97-2.8-0.97-4.6v-6.26c0-1.8,0.32-3.33,0.97-4.6
			c0.65-1.27,1.59-2.24,2.82-2.91c1.23-0.67,2.72-1,4.45-1c1.43,0,2.71,0.31,3.84,0.92c1.13,0.62,2.06,1.51,2.8,2.69
			c0.74,1.18,1.25,2.59,1.53,4.26h-4.45c-0.17-0.75-0.43-1.4-0.78-1.93c-0.35-0.53-0.77-0.94-1.27-1.22
			c-0.5-0.28-1.05-0.42-1.67-0.42c-0.81,0-1.49,0.16-2.06,0.49c-0.56,0.33-1,0.81-1.29,1.44c-0.3,0.63-0.45,1.39-0.45,2.28v6.26
			c0,0.89,0.15,1.65,0.45,2.27c0.3,0.63,0.73,1.11,1.29,1.43c0.56,0.33,1.25,0.49,2.06,0.49c0.63,0,1.19-0.14,1.69-0.42
			s0.92-0.68,1.27-1.21c0.34-0.53,0.6-1.18,0.75-1.94h4.45c-0.29,1.66-0.81,3.08-1.54,4.26c-0.74,1.18-1.67,2.07-2.79,2.69
			c-1.12,0.62-2.4,0.92-3.83,0.92C323.81,433.69,322.33,433.36,321.1,432.7z"/>
		<path class="st4" d="M342.1,410.66h4.3v22.8h-4.3V410.66z M344.09,420.08h13.28v4.14h-13.28V420.08z M354.59,410.66h4.3v22.8h-4.3
			V410.66z"/>
		<path class="st5" d="M382.45,433.46H378v-22.8h4.45V433.46z"/>
		<path class="st5" d="M391.62,410.66h5.25l8.48,17.47l-0.38,0.41v-17.88h4.11v22.78h-5.28l-8.45-17.2l0.38-0.41v17.61h-4.11V410.66
			z"/>
		<path class="st5" d="M418.57,410.66h4.3v22.8h-4.3V410.66z M420.74,429.32h5.47c1.41,0,2.5-0.34,3.28-1.02s1.16-1.64,1.16-2.89
			v-6.71c0-1.24-0.39-2.21-1.16-2.89c-0.77-0.68-1.87-1.02-3.28-1.02h-5.47v-4.14h5.38c1.9,0,3.53,0.32,4.87,0.96
			c1.34,0.64,2.36,1.57,3.07,2.79c0.7,1.22,1.05,2.7,1.05,4.42v6.46c0,1.64-0.34,3.07-1.01,4.3c-0.67,1.22-1.69,2.18-3.03,2.85
			c-1.35,0.68-3,1.02-4.96,1.02h-5.36V429.32z"/>
		<path class="st5" d="M447.61,432.7c-1.24-0.66-2.19-1.63-2.84-2.9c-0.65-1.27-0.97-2.8-0.97-4.59v-14.55h4.3v14.66
			c0,1.31,0.35,2.32,1.05,3.04c0.7,0.72,1.69,1.08,2.96,1.08c1.29,0,2.28-0.36,2.99-1.08c0.71-0.72,1.06-1.74,1.06-3.04v-14.66h4.3
			v14.55c0,1.79-0.33,3.32-0.98,4.59c-0.65,1.27-1.6,2.24-2.85,2.9c-1.25,0.66-2.75,1-4.51,1
			C450.35,433.69,448.85,433.36,447.61,432.7z"/>
		<path class="st5" d="M473.6,433.36c-1.04-0.22-2.02-0.54-2.93-0.96c-0.91-0.42-1.73-0.93-2.45-1.53l1.99-3.54
			c0.88,0.72,1.89,1.28,3.04,1.67c1.15,0.39,2.33,0.59,3.54,0.59c1.4,0,2.49-0.24,3.26-0.71c0.77-0.48,1.16-1.15,1.16-2.02v-0.02
			c0-0.61-0.17-1.09-0.52-1.44c-0.34-0.35-0.79-0.62-1.35-0.78c-0.55-0.17-1.26-0.32-2.13-0.45c-0.03-0.01-0.06-0.02-0.09-0.02
			c-0.03,0-0.06-0.01-0.09-0.02l-0.35-0.05c-1.53-0.24-2.79-0.54-3.79-0.9c-1-0.36-1.86-0.99-2.56-1.9c-0.7-0.9-1.05-2.19-1.05-3.85
			v-0.02c0-1.47,0.33-2.73,0.99-3.78c0.66-1.05,1.62-1.84,2.87-2.39c1.25-0.55,2.77-0.82,4.55-0.82c0.81,0,1.65,0.09,2.5,0.28
			c0.85,0.19,1.69,0.46,2.5,0.81s1.59,0.78,2.32,1.29l-1.82,3.64c-0.88-0.61-1.79-1.08-2.75-1.41c-0.96-0.33-1.87-0.5-2.75-0.5
			c-1.32,0-2.34,0.22-3.06,0.65c-0.72,0.43-1.08,1.04-1.08,1.83v0.02c0,0.66,0.19,1.18,0.56,1.56c0.38,0.38,0.84,0.66,1.4,0.84
			c0.55,0.18,1.33,0.37,2.34,0.56c0.04,0.01,0.08,0.02,0.13,0.02c0.04,0.01,0.08,0.01,0.13,0.02c0.06,0.01,0.12,0.02,0.18,0.04
			c0.06,0.02,0.12,0.03,0.18,0.04c1.44,0.28,2.65,0.63,3.62,1.03c0.97,0.4,1.77,1.05,2.42,1.94c0.65,0.89,0.97,2.11,0.97,3.66v0.03
			c0,1.45-0.34,2.7-1.02,3.73c-0.68,1.03-1.67,1.82-2.97,2.37c-1.3,0.54-2.87,0.81-4.7,0.81
			C475.7,433.69,474.63,433.58,473.6,433.36z"/>
		<path class="st5" d="M490.72,410.66h16.72v4.14h-16.72V410.66z M496.93,412.52h4.3v20.93h-4.3V412.52z"/>
		<path class="st5" d="M513.78,410.64h4.3v22.82h-4.3V410.64z M515.49,420.14h7.94c0.44,0,0.83-0.11,1.16-0.33
			c0.33-0.22,0.59-0.53,0.78-0.94c0.18-0.41,0.28-0.88,0.29-1.41c0-0.53-0.09-1-0.27-1.41c-0.18-0.41-0.44-0.72-0.78-0.94
			c-0.34-0.22-0.73-0.33-1.18-0.33h-7.94v-4.14h8.28c1.25,0,2.36,0.28,3.31,0.85c0.95,0.56,1.69,1.36,2.21,2.39
			c0.52,1.03,0.78,2.22,0.78,3.58c0,1.36-0.26,2.55-0.78,3.58c-0.52,1.03-1.26,1.83-2.22,2.39c-0.96,0.56-2.06,0.85-3.3,0.85h-8.28
			V420.14z M520.29,423.58l4.59-0.72l6.15,10.6h-5.21L520.29,423.58z"/>
		<path class="st5" d="M543.32,433.46h-4.45v-22.8h4.45V433.46z"/>
		<path class="st5" d="M552.49,410.66h4.3v22.8h-4.3V410.66z M554.04,410.66h13.72v4.14h-13.72V410.66z M554.04,420.07h12v4.14h-12
			V420.07z M554.04,429.32h13.72v4.14h-13.72V429.32z"/>
	</g>
</g>
</svg>
